<svg xmlns="http://www.w3.org/2000/svg" width="23" height="24" viewBox="0 0 23 24" fill="none">
  <path opacity="0.8" d="M18.6878 9.76691C18.3187 8.03064 17.3401 6.45033 15.9318 5.3172C14.4917 4.16491 12.702 3.53754 10.8576 3.53845C8.68341 3.53845 6.6527 4.37608 5.13449 5.89715C3.66732 7.36896 2.86324 9.31224 2.86967 11.3676C2.86972 12.8745 3.31211 14.3482 4.14198 15.606L4.29723 15.8219L3.44069 19.5272L7.53779 18.5079C7.53779 18.5079 7.61988 18.5354 7.68055 18.5586C7.74122 18.5818 8.26335 18.782 8.81724 18.9369C9.27763 19.0654 10.2355 19.2581 10.9861 19.2581C13.1149 19.2581 15.1028 18.4337 16.5832 16.9361C18.0503 15.4504 18.8583 13.475 18.8583 11.3719C18.8585 10.8323 18.8013 10.2943 18.6878 9.76691ZM7.43786 12.6749C7.21199 12.6749 6.99118 12.6079 6.80337 12.4824C6.61556 12.3569 6.46918 12.1785 6.38275 11.9699C6.29631 11.7612 6.27369 11.5315 6.31776 11.31C6.36182 11.0885 6.47059 10.885 6.63031 10.7253C6.79003 10.5655 6.99352 10.4568 7.21506 10.4127C7.43659 10.3686 7.66622 10.3913 7.8749 10.4777C8.08359 10.5641 8.26195 10.7105 8.38744 10.8983C8.51293 11.0861 8.57991 11.3069 8.57991 11.5328C8.57991 11.8357 8.45959 12.1262 8.24541 12.3404C8.03124 12.5545 7.74075 12.6749 7.43786 12.6749ZM10.864 12.6749C10.6381 12.6749 10.4173 12.6079 10.2295 12.4824C10.0417 12.3569 9.89533 12.1785 9.80889 11.9699C9.72245 11.7612 9.69984 11.5315 9.7439 11.31C9.78797 11.0885 9.89674 10.885 10.0565 10.7253C10.2162 10.5655 10.4197 10.4568 10.6412 10.4127C10.8627 10.3686 11.0924 10.3913 11.301 10.4777C11.5097 10.5641 11.6881 10.7105 11.8136 10.8983C11.9391 11.0861 12.0061 11.3069 12.0061 11.5328C12.0061 11.8357 11.8857 12.1262 11.6716 12.3404C11.4574 12.5545 11.1669 12.6749 10.864 12.6749ZM14.2902 12.6749C14.0643 12.6749 13.8435 12.6079 13.6557 12.4824C13.4679 12.3569 13.3215 12.1785 13.235 11.9699C13.1486 11.7612 13.126 11.5315 13.17 11.31C13.2141 11.0885 13.3229 10.885 13.4826 10.7253C13.6423 10.5655 13.8458 10.4568 14.0673 10.4127C14.2889 10.3686 14.5185 10.3913 14.7272 10.4777C14.9359 10.5641 15.1142 10.7105 15.2397 10.8983C15.3652 11.0861 15.4322 11.3069 15.4322 11.5328C15.4322 11.8357 15.3119 12.1262 15.0977 12.3404C14.8835 12.5545 14.593 12.6749 14.2902 12.6749Z" fill="url(#paint0_linear_51_1181)"/>
  <defs>
    <linearGradient id="paint0_linear_51_1181" x1="10.864" y1="3.53845" x2="10.864" y2="19.5272" gradientUnits="userSpaceOnUse">
      <stop stop-color="#FFEB34"/>
      <stop offset="1" stop-color="#1EAF76"/>
    </linearGradient>
  </defs>
</svg>