<svg xmlns="http://www.w3.org/2000/svg" width="24" height="25" viewBox="0 0 24 25" fill="none">
  <path d="M11.9995 2.74976C6.61498 2.74976 2.24951 7.11523 2.24951 12.4998C2.24951 17.8843 6.61498 22.2498 11.9995 22.2498C17.384 22.2498 21.7495 17.8843 21.7495 12.4998C21.7495 7.11523 17.384 2.74976 11.9995 2.74976Z" stroke="#7A8792" stroke-width="1.00189" stroke-miterlimit="10"/>
  <path d="M11.9992 2.74939C9.27715 2.74939 6.71777 7.11486 6.71777 12.4994C6.71777 17.8839 9.27715 22.2494 11.9992 22.2494C14.7212 22.2494 17.2806 17.8839 17.2806 12.4994C17.2806 7.11486 14.7212 2.74939 11.9992 2.74939Z" stroke="#7A8792" stroke-width="1.00189" stroke-miterlimit="10"/>
  <path d="M5.49854 6.18738C7.29104 7.46003 9.5476 8.21894 11.9987 8.21894C14.4498 8.21894 16.7064 7.46003 18.4989 6.18738" stroke="#7A8792" stroke-width="1.00189" stroke-linecap="round" stroke-linejoin="round"/>
  <path d="M18.4989 18.8124C16.7064 17.5398 14.4498 16.7809 11.9987 16.7809C9.5476 16.7809 7.29104 17.5398 5.49854 18.8124" stroke="#7A8792" stroke-width="1.00189" stroke-linecap="round" stroke-linejoin="round"/>
  <path d="M11.9995 2.74939V22.2494" stroke="#7A8792" stroke-width="1.00189" stroke-miterlimit="10"/>
  <path d="M21.749 12.4998H2.24902" stroke="#7A8792" stroke-width="1.00189" stroke-miterlimit="10"/>
</svg>