<svg xmlns="http://www.w3.org/2000/svg" width="24" height="24" viewBox="0 0 24 24" fill="none">
  <path opacity="0.5" d="M16.5687 5.25153C16.5687 5.25153 16.5687 4.25652 16.5687 3.53845H6.29385V5.25153H3.43872V6.60771C3.43872 7.74977 3.77777 8.84863 4.39376 9.69875C4.8695 10.3554 5.61326 10.8087 6.28207 11.0267C6.47622 12.0721 7.00299 13.0657 8.07331 13.8758C8.85847 14.4704 9.80244 14.9061 10.6479 15.0842V17.9568H8.00693V19.5272H14.8592V17.9568H12.2182V15.0842C13.0637 14.9058 14.0073 14.4704 14.7929 13.8758C15.8635 13.0657 16.3899 12.0721 16.5841 11.0267C17.2529 10.8087 17.9967 10.3554 18.4724 9.69875C19.0884 8.84863 19.4274 7.74977 19.4274 6.60771V5.25153H16.5687ZM5.66572 8.77761C5.28456 8.2537 5.05294 7.54991 5.01475 6.82185H6.29385V9.22622C6.15323 9.18554 5.83275 9.00781 5.66572 8.77761ZM17.2004 8.77761C17.0363 9.01352 16.7864 9.22658 16.5723 9.22658C16.5723 8.42715 16.5723 7.57453 16.5705 6.82185H17.8518C17.8132 7.54991 17.5716 8.24584 17.2004 8.77761Z" fill="white"/>
</svg>