<svg width="32" height="33" viewBox="0 0 32 33" fill="none" xmlns="http://www.w3.org/2000/svg">
<rect y="0.5" width="32" height="32" rx="3.2" fill="#0090D9"/>
<path d="M25.924 9.31065L22.8818 25.0055L22.868 25.041C22.8659 25.0465 22.7251 25.3989 22.391 25.6701C22.1709 25.8485 21.8319 25.9551 21.4843 25.9551C21.2397 25.955 20.9992 25.9038 20.7699 25.8026L20.7302 25.7854L17.422 23.2292C17.1879 23.0484 16.8964 22.9487 16.6014 22.9487C16.2647 22.9487 15.9423 23.0744 15.6935 23.3024L13.9033 24.9443L13.8885 24.9559C13.8882 24.9559 13.67 25.1134 13.3872 25.1134C13.3127 25.1134 13.2385 25.1023 13.1667 25.0804L13.1355 25.0708C13.1355 25.0708 13.1333 25.0704 13.1311 25.0701L13.4238 21.265C13.4854 20.4641 13.8399 19.7141 14.4195 19.1581L18.4619 15.2808C18.8445 14.9137 18.3781 14.306 17.9246 14.5805L10.7452 18.9259L6.62911 17.5297C6.55945 17.5007 6.40073 17.4283 6.23892 17.3121C5.91391 17.0799 5.73663 16.8086 5.69631 16.4817C5.66655 16.2483 5.75487 16.0195 5.84756 15.8825C5.9666 15.7066 6.10452 15.6044 6.19807 15.543C6.41151 15.3953 6.613 15.3152 6.66985 15.294L6.68895 15.2864C6.96948 15.1674 11.0734 13.4248 15.2456 11.6552L21.2708 9.09934L22.1973 8.70788C23.2659 8.25625 23.996 7.94777 24.237 7.84932L24.2809 7.83278C24.4342 7.77284 24.6649 7.69177 24.8975 7.68078C24.9154 7.67993 24.9334 7.6795 24.9518 7.6795C25.1506 7.6795 25.3334 7.73124 25.5107 7.83758C25.7052 7.95353 25.878 8.18937 25.942 8.42521C26.0088 8.67214 26.0032 8.95364 25.924 9.31065Z" fill="white"/>
</svg>
