<svg width="32" height="33" viewBox="0 0 32 33" fill="none" xmlns="http://www.w3.org/2000/svg">
<rect y="0.5" width="32" height="32" rx="3.2" fill="#209CE9"/>
<g clip-path="url(#clip0_51_2076)">
<path d="M27.9985 9.17357C27.0983 9.56474 26.1457 9.82246 25.171 9.93857C26.1954 9.33876 26.9657 8.38585 27.3375 7.25857C26.3691 7.82486 25.3113 8.2222 24.2095 8.43357C23.7456 7.94733 23.1876 7.56052 22.5695 7.29664C21.9514 7.03276 21.2861 6.89733 20.614 6.89857C17.893 6.89857 15.691 9.06857 15.691 11.7436C15.6891 12.1157 15.7317 12.4866 15.818 12.8486C13.8669 12.7571 11.9563 12.2594 10.2085 11.3872C8.46076 10.515 6.91428 9.28765 5.66804 7.78357C5.23082 8.52063 4.9996 9.36159 4.99854 10.2186C4.99854 11.8986 5.87504 13.3836 7.19854 14.2536C6.4144 14.235 5.64633 14.0274 4.95954 13.6486V13.7086C4.95954 16.0586 6.65954 18.0136 8.90954 18.4586C8.48643 18.5714 8.05042 18.6285 7.61254 18.6286C7.30182 18.6291 6.99182 18.599 6.68704 18.5386C7.31254 20.4636 9.13304 21.8636 11.2895 21.9036C9.53723 23.254 7.38584 23.9839 5.17354 23.9786C4.78084 23.978 4.38852 23.9546 3.99854 23.9086C6.24913 25.3457 8.86526 26.1058 11.5355 26.0986C20.6035 26.0986 25.5575 18.7136 25.5575 12.3086C25.5575 12.0986 25.552 11.8886 25.542 11.6836C26.5036 10.9996 27.3354 10.1496 27.9985 9.17357Z" fill="white"/>
</g>
<defs>
<clipPath id="clip0_51_2076">
<rect width="25.6" height="25.6" fill="white" transform="translate(3.19922 3.70001)"/>
</clipPath>
</defs>
</svg>
