<svg xmlns="http://www.w3.org/2000/svg" width="25" height="24" viewBox="0 0 25 24" fill="none">
  <path d="M11.3235 20.2551C9.2172 19.4 6.98619 18.8707 4.71093 18.6861L3.72713 18.6045V5.8252H1.89844V20.7343H12.5048L11.3235 20.2551Z" fill="#7A8792"/>
  <path d="M20.3492 18.679C18.0725 18.8625 15.839 19.3897 13.7294 20.2409L12.5078 20.7343H23.1142V5.8252H21.2855V18.6045L20.3492 18.679Z" fill="#7A8792"/>
  <path d="M13.7294 20.2409C15.8389 19.3897 18.0725 18.8625 20.3492 18.679L21.2854 18.6044V3.69531L20.3309 3.77339C18.0549 3.95656 15.8225 4.48478 13.7147 5.33885L12.5078 5.82519V20.7343L13.7294 20.2409Z" fill="#7A8792"/>
  <path d="M4.71041 18.6861C6.98566 18.8707 9.21664 19.4 11.3229 20.2551L12.5042 20.7343V5.82519L11.2973 5.33885C9.18955 4.48478 6.95711 3.9566 4.68113 3.77339L3.72656 3.69531V18.6044L4.71041 18.6861Z" fill="#7A8792"/>
  <path d="M23.1097 5.47016H21.6468V3.69525C21.6475 3.49931 21.4844 3.33957 21.2825 3.33887C21.2719 3.33887 21.2613 3.33924 21.2503 3.34028L20.2961 3.41836C17.9821 3.60402 15.7127 4.14111 13.5702 5.01007L12.5033 5.44066L11.4376 5.01149C9.29512 4.14252 7.02535 3.6051 4.71097 3.41944L3.7564 3.34028C3.55526 3.32393 3.37825 3.46878 3.3614 3.66401C3.36029 3.67428 3.35995 3.68493 3.35995 3.69525V5.47016H1.89697C1.6951 5.47016 1.53125 5.62919 1.53125 5.82512V20.7343C1.53125 20.9302 1.6951 21.0892 1.89697 21.0892H23.1097C23.3115 21.0892 23.4754 20.9302 23.4754 20.7343V5.82512C23.4754 5.62919 23.3116 5.47016 23.1097 5.47016ZM13.8514 5.66609C15.9237 4.82587 18.1189 4.3065 20.3572 4.12688L20.9153 4.08145V18.2775L20.3144 18.325C17.9997 18.5114 15.7292 19.0474 13.5849 19.9132L12.8691 20.2018V6.06191L13.8514 5.66609ZM4.09139 4.08145L4.64951 4.12688C6.8882 4.3065 9.08369 4.82583 11.1563 5.66642L12.1376 6.06186V20.2017L11.4632 19.9284C9.3222 19.0576 7.0539 18.5188 4.74063 18.331L4.09143 18.2785L4.09139 4.08145ZM2.26274 6.18009H3.35995V18.6044C3.35922 18.7893 3.50477 18.9437 3.69459 18.9593L4.67878 19.041C4.94687 19.0627 5.2153 19.0896 5.48339 19.1216C5.57301 19.1319 5.66186 19.1457 5.75148 19.1571C5.92887 19.1802 6.10623 19.2032 6.28289 19.2305C6.38824 19.2469 6.49321 19.266 6.59817 19.2842C6.75838 19.3115 6.91855 19.3388 7.07803 19.3693C7.18775 19.3906 7.29747 19.4141 7.40719 19.4372C7.56118 19.4691 7.71514 19.5018 7.8684 19.5372C7.97812 19.5628 8.08969 19.5901 8.20014 19.6175C8.35117 19.6551 8.50187 19.6934 8.65218 19.7339C8.7619 19.7637 8.87162 19.795 8.98134 19.8262C9.13058 19.8692 9.27943 19.9135 9.4279 19.9597C9.5365 19.9935 9.64515 20.0279 9.75342 20.0634C9.903 20.112 10.0515 20.1631 10.2 20.2153C10.3053 20.2508 10.411 20.2895 10.5156 20.3282C10.5609 20.3449 10.6059 20.3637 10.6509 20.38H2.26274V6.18009ZM22.7439 20.3793H14.3613C14.4114 20.3605 14.4611 20.3406 14.5112 20.3221C14.621 20.2813 14.7307 20.2426 14.843 20.2039C14.9863 20.1535 15.1304 20.1045 15.2749 20.0573C15.3875 20.0218 15.5009 19.9863 15.6139 19.9508C15.7584 19.9061 15.9036 19.8635 16.0488 19.8216C16.1629 19.789 16.2774 19.7566 16.3918 19.7261C16.5381 19.6864 16.6844 19.6491 16.8344 19.6125C16.9477 19.5845 17.0615 19.5565 17.1756 19.5302C17.3278 19.4947 17.481 19.4627 17.6342 19.4311C17.744 19.408 17.8537 19.3843 17.9656 19.363C18.1265 19.3321 18.2882 19.3048 18.4495 19.2774C18.5541 19.2596 18.6583 19.2419 18.7633 19.2242C18.9436 19.1965 19.1243 19.1727 19.3053 19.1492C19.392 19.1382 19.4787 19.1247 19.5657 19.1138C19.8338 19.0822 20.1034 19.0556 20.3744 19.0332L21.311 18.9593C21.5012 18.9441 21.6475 18.7897 21.6468 18.6044V6.18009H22.744L22.7439 20.3793Z" fill="#24262B"/>
  <path d="M13.9023 9.79355C14.9781 9.43496 17.1297 8.71777 18.7433 8.71777" stroke="#24262B" stroke-width="0.685714"/>
  <path d="M10.6758 9.79355C9.6 9.43496 7.44844 8.71777 5.83478 8.71777" stroke="#24262B" stroke-width="0.685714"/>
  <path d="M10.6758 11.9449C9.6 11.5863 7.44844 10.8691 5.83478 10.8691" stroke="#24262B" stroke-width="0.685714"/>
  <path d="M10.6758 14.0963C9.6 13.7377 7.44844 13.0205 5.83478 13.0205" stroke="#24262B" stroke-width="0.685714"/>
  <path d="M13.9023 11.9449C14.9781 11.5863 17.1297 10.8691 18.7433 10.8691" stroke="#24262B" stroke-width="0.685714"/>
  <path d="M13.9023 14.0963C14.9781 13.7377 17.1297 13.0205 18.7433 13.0205" stroke="#24262B" stroke-width="0.685714"/>
</svg>