<svg xmlns="http://www.w3.org/2000/svg" width="25" height="24" viewBox="0 0 25 24" fill="none">
  <path fill-rule="evenodd" clip-rule="evenodd" d="M23.4409 12.0004C23.4409 18.043 18.5424 22.9416 12.4998 22.9416C6.45713 22.9416 1.55859 18.043 1.55859 12.0004C1.55859 5.95774 6.45713 1.0592 12.4998 1.0592C18.5424 1.0592 23.4409 5.95774 23.4409 12.0004ZM10.5685 10.0695L6.70312 17.8273L14.4301 13.9311L18.2952 6.20422L10.5685 10.0695ZM12.4984 13.1473C13.1317 13.1473 13.6452 12.6338 13.6452 12.0004C13.6452 11.3671 13.1317 10.8536 12.4984 10.8536C11.865 10.8536 11.3516 11.3671 11.3516 12.0004C11.3516 12.6338 11.865 13.1473 12.4984 13.1473Z" fill="#F6C621"/>
</svg>