<svg xmlns="http://www.w3.org/2000/svg" width="25" height="24" viewBox="0 0 25 24" fill="none">
  <g clip-path="url(#clip0_51_5928)">
    <path d="M23.1627 6.98679C22.0898 4.29083 19.0347 2.98149 16.3433 4.05442C15.9568 4.20899 15.6022 4.40448 15.2749 4.6318C14.4565 5.20009 13.4927 5.53652 12.4925 5.53652C11.9924 5.53652 11.5014 5.45468 11.0377 5.30011C10.5694 5.14553 10.1239 4.91822 9.71929 4.6318C9.39195 4.40448 9.03279 4.20899 8.64636 4.05442C5.94584 2.97694 2.89527 4.29083 1.82234 6.98679C0.749406 9.68276 -0.873629 17.9116 2.57702 19.2891C4.47738 20.0484 6.68689 18.2389 8.46905 16.0158C9.11463 15.2065 10.1012 14.7474 11.1377 14.7474H13.8519C14.8884 14.7474 15.875 15.2065 16.5206 16.0158C18.3073 18.2389 20.5122 20.0484 22.4126 19.2891C25.8633 17.9116 24.2357 9.68276 23.1627 6.98679ZM8.60999 10.242H7.20517V11.6468C7.20517 12.0423 6.88238 12.3651 6.48686 12.3651C6.09133 12.3651 5.76854 12.0423 5.76854 11.6468V10.242H4.36373C3.9682 10.242 3.64541 9.91916 3.64541 9.52363C3.64541 9.1281 3.9682 8.80532 4.36373 8.80532H5.76854V7.4005C5.76854 7.00498 6.09133 6.68219 6.48686 6.68219C6.88238 6.68219 7.20517 7.00498 7.20517 7.4005V8.80532H8.60999C9.00552 8.80532 9.3283 9.1281 9.3283 9.52363C9.3283 9.91916 9.00552 10.242 8.60999 10.242ZM18.2391 6.4185C18.821 6.4185 19.2893 6.88677 19.2893 7.4687C19.2893 8.05063 18.821 8.51435 18.2391 8.51435C17.6572 8.51435 17.1934 8.04608 17.1934 7.4687C17.1934 6.89132 17.6617 6.4185 18.2391 6.4185ZM16.1887 10.5738C15.6113 10.5738 15.1385 10.1056 15.1385 9.52363C15.1385 8.94171 15.6113 8.47798 16.1887 8.47798C16.7661 8.47798 17.2389 8.94625 17.2389 9.52363C17.2389 10.101 16.7661 10.5738 16.1887 10.5738ZM18.2391 12.6242C17.6617 12.6242 17.1934 12.1514 17.1934 11.5786C17.1934 11.0057 17.6617 10.5238 18.2391 10.5238C18.8165 10.5238 19.2893 10.9921 19.2893 11.5786C19.2893 12.165 18.821 12.6242 18.2391 12.6242ZM20.294 10.5738C19.7121 10.5738 19.2438 10.1056 19.2438 9.52363C19.2438 8.94171 19.7121 8.47798 20.294 8.47798C20.8759 8.47798 21.3397 8.94625 21.3397 9.52363C21.3397 10.101 20.8714 10.5738 20.294 10.5738Z" fill="#7A8792"/>
  </g>
  <defs>
    <clipPath id="clip0_51_5928">
      <rect width="24" height="24" fill="white" transform="translate(0.5)"/>
    </clipPath>
  </defs>
</svg>