<svg xmlns="http://www.w3.org/2000/svg" width="25" height="24" viewBox="0 0 25 24" fill="none">
  <path d="M19.7731 4.56901C17.7702 2.61901 15.1194 1.50104 12.5 1.50104C9.88062 1.50104 7.22984 2.61901 5.22687 4.56901C3.14609 6.59494 2 9.18854 2 12.001C2 14.8135 3.25812 17.5553 4.12906 19.1378C5 20.7203 6.17188 22.501 7.25 22.501C8.75 22.501 11.75 21.001 11.75 21.001L6.5 11.251L3.94906 12.7384C3.91767 12.4451 3.90202 12.1503 3.90219 11.8553C3.90219 9.57854 4.80781 7.44432 6.53422 5.76151C8.19875 4.14198 10.3438 3.28229 12.5 3.28229C14.6562 3.28229 16.7998 4.14198 18.4658 5.76338C20.1922 7.44432 21.0973 9.57854 21.0973 11.8571C21.0975 12.1518 21.0819 12.4463 21.0505 12.7393L18.5 11.251L13.25 21.001C13.25 21.001 16.25 22.501 17.75 22.501C18.8281 22.501 20 20.7198 20.8709 19.1378C21.7419 17.5557 23 14.8135 23 12.001C23 9.18854 21.8539 6.59494 19.7731 4.56901Z" fill="#57AE10"/>
</svg>