<svg xmlns="http://www.w3.org/2000/svg" width="22" height="22" viewBox="0 0 22 22" fill="none">
  <path fill-rule="evenodd" clip-rule="evenodd" d="M21.9412 10.9412C21.9412 16.9838 17.0427 21.8824 11 21.8824C4.95737 21.8824 0.0588379 16.9838 0.0588379 10.9412C0.0588379 4.89853 4.95737 0 11 0C17.0427 0 21.9412 4.89853 21.9412 10.9412ZM9.07069 9.01026L5.20532 16.7681L12.9323 12.8719L16.7974 5.14502L9.07069 9.01026ZM11.0004 12.0879C11.6338 12.0879 12.1472 11.5745 12.1472 10.9411C12.1472 10.3078 11.6338 9.79431 11.0004 9.79431C10.3671 9.79431 9.85362 10.3078 9.85362 10.9411C9.85362 11.5745 10.3671 12.0879 11.0004 12.0879Z" fill="white" fill-opacity="0.9"/>
</svg>