<svg xmlns="http://www.w3.org/2000/svg" width="33" height="32" viewBox="0 0 33 32" fill="none">
  <path d="M16.125 32C24.9616 32 32.125 24.8366 32.125 16C32.125 7.16344 24.9616 0 16.125 0C7.28844 0 0.125 7.16344 0.125 16C0.125 24.8366 7.28844 32 16.125 32Z" fill="#F7931A"/>
  <path d="M23.314 14.02C23.628 11.924 22.031 10.797 19.849 10.045L20.557 7.205L18.829 6.775L18.139 9.54C17.685 9.426 17.219 9.32 16.754 9.214L17.449 6.431L15.721 6L15.013 8.839C14.637 8.753 14.267 8.669 13.909 8.579L13.911 8.57L11.527 7.975L11.067 9.821C11.067 9.821 12.35 10.115 12.323 10.133C13.023 10.308 13.149 10.771 13.128 11.139L12.322 14.374C12.37 14.386 12.432 14.404 12.502 14.431L12.319 14.386L11.189 18.918C11.103 19.13 10.886 19.449 10.396 19.328C10.414 19.353 9.13998 19.015 9.13998 19.015L8.28198 20.993L10.532 21.554C10.95 21.659 11.36 21.769 11.763 21.872L11.048 24.744L12.775 25.174L13.483 22.334C13.955 22.461 14.413 22.579 14.861 22.691L14.155 25.519L15.883 25.949L16.598 23.083C19.546 23.641 21.762 23.416 22.695 20.75C23.447 18.604 22.658 17.365 21.107 16.558C22.237 16.298 23.087 15.555 23.314 14.02ZM19.364 19.558C18.831 21.705 15.216 20.544 14.044 20.253L14.994 16.448C16.166 16.741 19.923 17.32 19.364 19.558ZM19.899 13.989C19.412 15.942 16.404 14.949 15.429 14.706L16.289 11.256C17.264 11.499 20.407 11.952 19.899 13.989Z" fill="white"/>
</svg>