<svg xmlns="http://www.w3.org/2000/svg" width="24" height="24" viewBox="0 0 24 24" fill="none">
<path fill-rule="evenodd" clip-rule="evenodd" d="M11.9982 2.40039L6.10021 8.29869L8.26976 10.4683L11.9982 6.73981L15.7289 10.4702L17.8985 8.30082L11.9982 2.40039ZM2.39844 12L4.56784 14.1694L6.73755 11.9999L4.56799 9.83047L2.39844 12ZM8.26976 13.5323L11.9982 17.2607L15.7288 13.5303L17.8994 15.6987L17.8985 15.7L11.9982 21.6L6.10006 15.7018L6.09687 15.6988L8.26976 13.5323ZM17.2593 12.001L19.4287 14.1704L21.5984 12.001L19.4287 9.83143L17.2593 12.001ZM10.3713 11.4245L11.9983 9.79752L14.1998 11.9991H14.1989L14.2009 12.0001L14.1998 12.0013L11.9983 14.2029L9.79869 12.0033L9.79566 12.0001L9.79869 11.9971L10.1843 11.6115L10.3711 11.4245H10.3713Z" fill="white"/>
</svg>