


<svg xmlns="http://www.w3.org/2000/svg" width="103" height="22" viewBox="0 0 103 22" fill="none">
  <g opacity="0.7">
    <path d="M15.7078 14.8977L18.2885 17.0715C17.7948 17.7488 17.1983 18.349 16.5194 18.8515C15.6752 19.5006 14.737 20.0243 13.7354 20.4058C12.627 20.828 11.4456 21.0392 10.2556 21.0278C8.44597 21.0588 6.66179 20.6094 5.09421 19.7277C3.61685 18.8829 2.40372 17.6617 1.58523 16.1953C0.718629 14.6357 0.280625 12.8843 0.313761 11.111C0.301925 9.77864 0.546667 8.45594 1.03529 7.21151C1.51118 6.01627 2.22034 4.92228 3.12352 3.99008C4.01369 3.06272 5.08935 2.32291 6.28418 1.81626C7.57549 1.27796 8.96789 1.00829 10.3723 1.02449C12.0491 0.963667 13.7118 1.34433 15.1853 2.12644C16.4052 2.81789 17.4622 3.75167 18.2877 4.86713L15.6787 7.1279C15.0995 6.29239 14.3611 5.57289 13.5038 5.00843C12.5633 4.44853 11.4734 4.17327 10.3723 4.21749C9.19765 4.18386 8.04163 4.50957 7.06663 5.14889C6.13223 5.78359 5.39117 6.65252 4.92177 7.66383C4.41443 8.72632 4.15651 9.88566 4.16678 11.0575C4.15374 12.2014 4.41182 13.3327 4.92091 14.3634C5.38736 15.3202 6.10696 16.1387 7.00571 16.7345C7.94403 17.3315 9.04612 17.637 10.1663 17.6108C11.1098 17.6502 12.0505 17.4861 12.9212 17.13C13.5472 16.8553 14.1169 16.4723 14.6028 15.9996L15.7044 14.8977" fill="white"/>
    <path d="M19.3021 13.8243C19.2893 12.5789 19.6092 11.3518 20.2305 10.2634C20.8494 9.18743 21.7499 8.29052 22.8402 7.66402C24.0228 7.03372 25.3489 6.70337 26.6967 6.70337C28.0445 6.70337 29.3707 7.03372 30.5532 7.66402C31.6436 8.29052 32.5441 9.18743 33.163 10.2634C33.772 11.3563 34.0908 12.5803 34.0908 13.8239C34.0908 15.0675 33.772 16.2914 33.163 17.3843C32.5029 18.4829 31.5598 19.3945 30.4271 20.0289C29.2944 20.6633 28.0115 20.9985 26.7051 21.0013C25.3987 21.0042 24.1141 20.6747 22.9786 20.0453C21.843 19.4158 20.8957 18.5084 20.2305 17.4128C19.6094 16.3247 19.2894 15.0978 19.3021 13.8527V13.8243ZM26.6675 18.0917C27.4471 18.1209 28.2136 17.8919 28.8424 17.442C29.4163 17.0158 29.8661 16.4509 30.1473 15.8033C30.4245 15.1882 30.5724 14.5253 30.5824 13.8535C30.5756 13.1815 30.4276 12.5179 30.1473 11.9038C29.865 11.2569 29.4154 10.6923 28.8424 10.2651C28.2005 9.8415 27.4429 9.61518 26.6675 9.61518C25.8923 9.61518 25.1347 9.8415 24.4927 10.2651C23.9335 10.687 23.4943 11.2414 23.2169 11.8754C22.9367 12.4895 22.7887 13.1531 22.7819 13.8251C22.7871 14.5065 22.9352 15.1797 23.2169 15.8033C23.497 16.4516 23.947 17.0167 24.5219 17.442C25.1506 17.8919 25.9173 18.1209 26.6967 18.0917" fill="white"/>
    <path d="M34.7866 1.4751H38.2373V5.03598H34.7866V1.4751ZM34.7866 7.12703H38.2373V20.5496H34.7866V7.12703Z" fill="white"/>
    <path d="M39.5996 20.5493V7.15518H42.9053L42.9911 8.68102C43.4467 8.22031 43.9635 7.82103 44.5277 7.49378C45.3194 7.04921 46.2246 6.83346 47.1375 6.87174C47.8628 6.82636 48.5894 6.93697 49.266 7.19575C49.9425 7.45453 50.5523 7.85513 51.0523 8.36917C52.0092 9.50268 52.4955 10.9443 52.4156 12.41V20.5484H48.9358V12.4384C48.9576 12.0781 48.9046 11.7172 48.7801 11.3773C48.6555 11.0375 48.4619 10.7255 48.2108 10.4602C47.9679 10.2245 47.6778 10.0401 47.3585 9.91854C47.0392 9.79698 46.6976 9.74088 46.3551 9.75375C45.9064 9.74205 45.4605 9.82724 45.0495 10.0032C44.6385 10.1791 44.2725 10.4413 43.9777 10.7713C43.3528 11.4648 43.021 12.3636 43.0494 13.2862V20.5484L39.5996 20.5493Z" fill="white"/>
    <path d="M95.0454 10.3201L101.137 1.47178H95.3664L92.2055 6.41722L88.9545 1.47178H82.5745L82.8645 1.86724L82.6612 1.78364C81.1522 1.22625 79.5492 0.950286 77.9356 0.970125C76.076 0.936312 74.2419 1.39551 72.6292 2.29866C71.4775 2.95653 70.4798 3.84196 69.7003 4.89805C68.8532 3.86344 67.7576 3.04819 66.5104 2.5244C64.8059 1.81992 62.9685 1.47213 61.1173 1.50355H53.6069V20.5496H61.0882C62.9418 20.5791 64.7804 20.2225 66.4812 19.5036C67.7201 18.9792 68.8134 18.1753 69.671 17.1584C70.4633 18.2239 71.4819 19.1105 72.6575 19.7578C74.271 20.6272 76.0914 21.0659 77.9347 21.0295C79.6795 21.0598 81.4073 20.6922 82.9803 19.956L82.5745 20.5496H88.2573L92.0566 14.697L95.9716 20.5496H102.467L95.0454 10.3201ZM64.8597 14.6677C64.3366 15.1547 63.7163 15.5314 63.0373 15.7744C62.3583 16.0176 61.6352 16.1218 60.9132 16.0807H58.7975V5.91222H60.914C61.6551 5.85103 62.4009 5.94551 63.1013 6.18926C63.8017 6.43302 64.4402 6.82038 64.9738 7.3252C65.8722 8.34361 66.3388 9.65723 66.2788 10.999C66.307 11.6729 66.1958 12.3455 65.9518 12.9767C65.7076 13.6078 65.3357 14.1846 64.858 14.6727L64.8597 14.6677ZM85.6481 16.0573L83.1836 13.7999C82.6062 14.5295 81.8992 15.1525 81.0963 15.6392C80.2377 16.0716 79.2776 16.2763 78.3122 16.2329C77.357 16.2556 76.4137 16.021 75.5866 15.5548C74.8121 15.1053 74.1866 14.4482 73.7849 13.6619C73.3511 12.8109 73.1322 11.8713 73.1466 10.9212C73.128 9.99191 73.3368 9.07159 73.7557 8.23654C74.1526 7.45707 74.7654 6.80139 75.5247 6.34364C76.3748 5.85361 77.35 5.60863 78.3371 5.63715C79.2514 5.61922 80.1535 5.84376 80.947 6.28679C81.721 6.73444 82.3926 7.332 82.9202 8.04256L85.5008 5.52762L89.2712 10.8117L85.6481 16.0573Z" fill="white"/>
  </g>
</svg>