<svg xmlns="http://www.w3.org/2000/svg" width="26" height="20" viewBox="0 0 26 20" fill="none">
  <path d="M5.64941 14.6394C11.4576 17.4076 14.9425 17.4076 20.7507 14.6394" stroke="#7A8792" stroke-width="1.6627" stroke-linecap="round" stroke-linejoin="round"/>
  <path d="M17.2659 16.3009L18.4276 18.5155C18.4276 18.5155 23.2731 17.0446 24.8166 14.6399C24.8166 13.5326 25.4324 5.61925 21.3317 3.01336C19.5892 1.90606 16.6851 1.35242 16.6851 1.35242L15.5235 3.567H13.2002" stroke="#7A8792" stroke-width="1.6627" stroke-linecap="round" stroke-linejoin="round"/>
  <path d="M9.16652 16.3009L8.00488 18.5155C8.00488 18.5155 3.15929 17.0446 1.61586 14.6399C1.61586 13.5326 1.00008 5.61925 5.10077 3.01336C6.84323 1.90606 9.74734 1.35242 9.74734 1.35242L10.909 3.567H13.2322" stroke="#7A8792" stroke-width="1.6627" stroke-linecap="round" stroke-linejoin="round"/>
  <path d="M9.13406 12.4243C8.17172 12.4243 7.3916 11.4328 7.3916 10.2097C7.3916 8.98659 8.17172 7.99512 9.13406 7.99512C10.0964 7.99512 10.8765 8.98659 10.8765 10.2097C10.8765 11.4328 10.0964 12.4243 9.13406 12.4243Z" stroke="#7A8792" stroke-width="1.6627" stroke-linecap="round" stroke-linejoin="round"/>
  <path d="M17.2659 12.4242C16.3036 12.4242 15.5234 11.4327 15.5234 10.2096C15.5234 8.98647 16.3036 7.995 17.2659 7.995C18.2282 7.995 19.0084 8.98647 19.0084 10.2096C19.0084 11.4327 18.2282 12.4242 17.2659 12.4242Z" stroke="#7A8792" stroke-width="1.6627" stroke-linecap="round" stroke-linejoin="round"/>
</svg>