<svg xmlns="http://www.w3.org/2000/svg" width="21" height="20" viewBox="0 0 21 20" fill="none">
  <path d="M19.6484 9.93396C19.6484 14.8822 15.4402 18.8935 10.2491 18.8935C5.05804 18.8935 0.849775 14.8822 0.849775 9.93396C0.849775 4.98571 5.05804 0.974365 10.2491 0.974365C15.4402 0.974365 19.6484 4.98571 19.6484 9.93396Z" stroke="#7A8792" stroke-width="1.6627" stroke-linecap="round" stroke-linejoin="round"/>
  <path d="M9.30957 1.01819C9.30957 1.01819 6.48977 4.55778 6.48977 9.9335C6.48977 15.3093 9.30957 18.8489 9.30957 18.8489" stroke="#7A8792" stroke-width="1.6627" stroke-linecap="round" stroke-linejoin="round"/>
  <path d="M11.189 18.849C11.189 18.849 14.0088 15.3094 14.0088 9.93362C14.0088 4.5579 11.189 1.01831 11.189 1.01831" stroke="#7A8792" stroke-width="1.6627" stroke-linecap="round" stroke-linejoin="round"/>
  <path d="M19.0566 13.0706H1.44158" stroke="#7A8792" stroke-width="1.6627" stroke-linecap="round" stroke-linejoin="round"/>
  <path d="M19.0566 6.79858H1.44158" stroke="#7A8792" stroke-width="1.6627" stroke-linecap="round" stroke-linejoin="round"/>
</svg>