<svg xmlns="http://www.w3.org/2000/svg" width="26" height="24" viewBox="0 0 26 24" fill="none">
  <path d="M13.0639 19.8882C15.2775 19.8882 17.4005 19.05 18.9657 17.558C20.531 16.0659 21.4104 14.0423 21.4104 11.9323C21.4104 9.8222 20.531 7.79857 18.9657 6.30654C17.4005 4.81451 15.2775 3.97629 13.0639 3.97629C10.8503 3.97629 8.72735 4.81451 7.16209 6.30654C5.59682 7.79857 4.71747 9.8222 4.71747 11.9323C4.71747 14.0423 5.59682 16.0659 7.16209 17.558C8.72735 19.05 10.8503 19.8882 13.0639 19.8882ZM13.0639 21.8772C7.30174 21.8772 2.63086 17.4248 2.63086 11.9323C2.63086 6.43966 7.30174 1.9873 13.0639 1.9873C18.8261 1.9873 23.497 6.43966 23.497 11.9323C23.497 17.4248 18.8261 21.8772 13.0639 21.8772ZM9.81923 13.0958L7.21306 12.3211C6.64967 12.157 6.64654 11.7871 7.3393 11.5215L17.4938 7.78223C18.0833 7.55349 18.4171 7.84289 18.2262 8.56788L16.4974 16.3448C16.3764 16.8988 16.0269 17.031 15.5418 16.7754L12.8803 14.8978L11.6398 16.0395C11.5125 16.1569 11.4092 16.2573 11.2131 16.2822C11.018 16.308 10.8573 16.2523 10.7394 15.944L9.83175 13.0889L9.81923 13.0958Z" fill="#7A8792"/>
</svg>