<svg width="23" height="22" viewBox="0 0 23 22" fill="none" xmlns="http://www.w3.org/2000/svg">
<path d="M15.4746 5.13195C14.6288 5.13182 13.8167 5.44283 13.2131 5.99805C12.6095 6.55328 12.2627 7.30834 12.2472 8.10075L12.2161 9.74314C12.2142 9.83132 12.1925 9.91814 12.1524 9.99791C12.1122 10.0777 12.0545 10.1486 11.9831 10.206C11.9116 10.2634 11.828 10.306 11.7377 10.331C11.6475 10.356 11.5526 10.3629 11.4593 10.3511L9.72211 10.13C7.43626 9.83803 5.24611 8.85156 3.145 7.21126C2.47949 10.6629 3.77934 13.054 6.90986 14.8987L8.85406 16.0436C8.94644 16.098 9.02318 16.1728 9.07758 16.2614C9.13198 16.35 9.16237 16.4498 9.16611 16.552C9.16984 16.6541 9.1468 16.7556 9.099 16.8475C9.0512 16.9394 8.98009 17.0189 8.8919 17.0791L7.1202 18.2919C8.17409 18.3534 9.17457 18.3096 10.0048 18.1553C15.2553 17.173 18.7464 13.4711 18.7464 7.36455C18.7464 6.8661 17.6202 5.13195 15.4746 5.13195ZM10.0215 8.06217C10.0409 7.05698 10.3764 6.0795 10.9858 5.2521C11.5953 4.42471 12.4518 3.78417 13.4479 3.4107C14.4441 3.03722 15.5357 2.9474 16.5861 3.15249C17.6364 3.35757 18.5989 3.84844 19.353 4.56363C20.1442 4.55842 20.8175 4.74612 22.3232 3.89104C21.9504 5.6012 21.7668 6.34367 20.9722 7.36455C20.9722 15.3335 15.745 19.2085 10.441 20.2002C6.80414 20.8801 1.51574 19.7632 0 18.2804C0.772338 18.2241 3.91066 17.9081 5.72465 16.6641C4.18999 15.7162 -1.9186 12.348 2.09555 3.29248C3.97965 5.35406 5.89047 6.75765 7.82688 7.5022C9.11559 7.99752 9.43165 7.98709 10.0226 8.06321L10.0215 8.06217Z" fill="#7A8792"/>
</svg>
